<?xml version="1.0" encoding="iso-8859-1"?>
<!-- Generator: Adobe Illustrator 19.0.0, SVG Export Plug-In . SVG Version: 6.00 Build 0)  -->
<svg fill="blue" stroke="current" version="1.1" id="Capa_1" xmlns="http://www.w3.org/2000/svg" xmlns:xlink="http://www.w3.org/1999/xlink" x="0px" y="0px"
	 viewBox="0 0 480 480" style="enable-background:new 0 0 480 480;" xml:space="preserve">
<g>
	<g>
		<g>
			<path d="M408,7.312c-0.358-4.148-3.837-7.327-8-7.312H80c-4.163-0.015-7.642,3.164-8,7.312l-32,368V376v96c0,4.418,3.582,8,8,8
				h384c4.418,0,8-3.582,8-8v-96c0-0.128,0-0.576,0-0.688L408,7.312z M87.336,16h305.328l30.608,352H56.728L87.336,16z M424,464H56
				v-80h368V464z"/>
			<path d="M96,448c13.255,0,24-10.745,24-24s-10.745-24-24-24s-24,10.745-24,24S82.745,448,96,448z M96,416c4.418,0,8,3.582,8,8
				s-3.582,8-8,8s-8-3.582-8-8S91.582,416,96,416z"/>
			<path d="M144,432h80c4.418,0,8-3.582,8-8s-3.582-8-8-8h-80c-4.418,0-8,3.582-8,8S139.582,432,144,432z"/>
			<path d="M400,448c4.418,0,8-3.582,8-8v-32c0-4.418-3.582-8-8-8s-8,3.582-8,8v32C392,444.418,395.582,448,400,448z"/>
			<path d="M368,448c4.418,0,8-3.582,8-8v-32c0-4.418-3.582-8-8-8s-8,3.582-8,8v32C360,444.418,363.582,448,368,448z"/>
			<path d="M336,448c4.418,0,8-3.582,8-8v-32c0-4.418-3.582-8-8-8s-8,3.582-8,8v32C328,444.418,331.582,448,336,448z"/>
			<path d="M304,448c4.418,0,8-3.582,8-8v-32c0-4.418-3.582-8-8-8s-8,3.582-8,8v32C296,444.418,299.582,448,304,448z"/>
			<path d="M272,448c4.418,0,8-3.582,8-8v-32c0-4.418-3.582-8-8-8s-8,3.582-8,8v32C264,444.418,267.582,448,272,448z"/>
			<path d="M307.712,200.4c-3.07-3.178-8.134-3.266-11.312-0.196c-3.178,3.069-3.266,8.134-0.196,11.312
				c0.064,0.067,0.13,0.132,0.196,0.196L316.688,232H136c-4.418,0-8,3.582-8,8s3.582,8,8,8h180.688L296.4,268.288
				c-3.178,3.07-3.266,8.134-0.196,11.312c3.07,3.178,8.134,3.266,11.312,0.196c0.066-0.064,0.132-0.129,0.196-0.196l33.944-33.944
				c3.123-3.124,3.123-8.188,0-11.312L307.712,200.4z"/>
			<path d="M336,136H155.312l20.288-20.288c3.178-3.069,3.266-8.134,0.197-11.312c-3.069-3.178-8.134-3.266-11.312-0.197
				c-0.067,0.064-0.132,0.13-0.197,0.197l-33.944,33.944c-3.123,3.124-3.123,8.188,0,11.312l33.944,33.944
				c3.069,3.178,8.134,3.266,11.312,0.197c3.178-3.069,3.266-8.134,0.197-11.312c-0.064-0.067-0.13-0.132-0.197-0.197L155.312,152
				H336c4.418,0,8-3.582,8-8S340.418,136,336,136z"/>
		</g>
	</g>
</g>
<g>
</g>
<g>
</g>
<g>
</g>
<g>
</g>
<g>
</g>
<g>
</g>
<g>
</g>
<g>
</g>
<g>
</g>
<g>
</g>
<g>
</g>
<g>
</g>
<g>
</g>
<g>
</g>
<g>
</g>
</svg>
