<svg fill="current" stroke="current" id="Icons" height="512" viewBox="0 0 74 74" width="512" xmlns="http://www.w3.org/2000/svg"><path d="m57.124 72h-47.45a2.487 2.487 0 0 1 -2.484-2.483v-47.45a2.487 2.487 0 0 1 2.484-2.483h47.45a2.485 2.485 0 0 1 2.482 2.483v47.45a2.485 2.485 0 0 1 -2.482 2.483zm-47.45-50.416a.484.484 0 0 0 -.484.483v47.45a.484.484 0 0 0 .484.483h47.45a.483.483 0 0 0 .482-.483v-47.45a.483.483 0 0 0 -.482-.483z"/><path d="m58.606 31.964h-50.416a1 1 0 1 1 0-2h50.416a1 1 0 0 1 0 2z"/><path d="m53.579 26.774h-1.715a1 1 0 0 1 0-2h1.715a1 1 0 1 1 0 2z"/><path d="m46.976 26.774h-1.714a1 1 0 0 1 0-2h1.714a1 1 0 0 1 0 2z"/><path d="m40.373 26.774h-1.715a1 1 0 0 1 0-2h1.715a1 1 0 0 1 0 2z"/><path d="m65.81 28.91a1 1 0 0 1 -1-1v-2.91a1 1 0 0 1 2 0v2.91a1 1 0 0 1 -1 1z"/><path d="m64.33 54.42h-5.72a1 1 0 0 1 0-2h5.72a.486.486 0 0 0 .48-.49v-7.06a1 1 0 0 1 2 0v7.06a2.488 2.488 0 0 1 -2.48 2.49z"/><path d="m65.81 38.87a1 1 0 0 1 -1-1v-2.96a1 1 0 0 1 2 0v2.96a1 1 0 0 1 -1 1z"/><path d="m15.39 21.58a1 1 0 0 1 -1-1v-16.1a2.482 2.482 0 0 1 2.48-2.48h47.46a2.483 2.483 0 0 1 2.48 2.48v13.52a1 1 0 0 1 -2 0v-13.52a.492.492 0 0 0 -.48-.48h-47.46a.492.492 0 0 0 -.48.48v16.1a1 1 0 0 1 -1 1z"/><path d="m65.81 14.382h-50.416a1 1 0 0 1 0-2h50.416a1 1 0 0 1 0 2z"/><path d="m60.781 9.192h-1.714a1 1 0 0 1 0-2h1.714a1 1 0 0 1 0 2z"/><path d="m54.179 9.192h-1.715a1 1 0 0 1 0-2h1.715a1 1 0 0 1 0 2z"/><path d="m47.575 9.192h-1.715a1 1 0 0 1 0-2h1.715a1 1 0 0 1 0 2z"/></svg>